<?xml version="1.0" encoding="UTF-8"?>
<svg width="108.17pt" height="108.17pt" version="1.2" viewBox="0 0 108.17 108.17" xmlns="http://www.w3.org/2000/svg" xmlns:cc="http://creativecommons.org/ns#" xmlns:dc="http://purl.org/dc/elements/1.1/" xmlns:rdf="http://www.w3.org/1999/02/22-rdf-syntax-ns#">
 <metadata>
  <rdf:RDF>
   <cc:Work rdf:about="">
    <dc:format>image/svg+xml</dc:format>
    <dc:type rdf:resource="http://purl.org/dc/dcmitype/StillImage"/>
    <dc:title/>
   </cc:Work>
  </rdf:RDF>
 </metadata>
 <defs>
  <clipPath id="clip171">
   <path d="m1481 474.39h108.21v108.21h-108.21z"/>
  </clipPath>
  <clipPath id="clip172">
   <path d="m1499.3 509.15h71.5v72.586h-71.5z"/>
  </clipPath>
  <clipPath id="clip173">
   <path d="m1546.4 509.42h24.297v16.211h-24.297z"/>
  </clipPath>
  <clipPath id="clip174">
   <path d="m1480 473.39h110.21v110.21h-110.21z"/>
  </clipPath>
 </defs>
 <g transform="translate(-1481 -474.41)">
  <path d="m1571.2 492.36c19.957 19.957 19.957 52.316 0 72.273-19.957 19.957-52.312 19.957-72.27 0-19.957-19.957-19.957-52.316 0-72.273 19.957-19.957 52.312-19.957 72.27 0z" fill="#ebf3f3"/>
  <g clip-path="url(#clip171)">
   <path transform="translate(1484 477.4)" d="m87.239 14.967c19.957 19.957 19.957 52.316 0 72.273-19.957 19.957-52.312 19.957-72.27 0-19.957-19.957-19.957-52.316 0-72.273 19.957-19.957 52.312-19.957 72.27 0z" fill="none" stroke="#000" stroke-width="4"/>
  </g>
  <path d="m1530.9 511.22-9.1484-0.043c-0.9648-0.0977-1.9375 0.0781-2.8086 0.5039-0.8476 0.41797-1.5625 1.0586-2.0742 1.8516l-14.391 19.312c-0.6133 0.8164-1.0078 1.7734-1.1485 2.7852-0.164 1.1836 0.027 2.3867 0.5547 3.4609l2.6563 5.582c0.5898 0.88281 1.3554 1.6406 2.2422 2.2188 1.0273 0.66797 2.1953 1.0898 3.4101 1.2266l5.9375 0.0352c0.7656-0.0664 1.5195-0.25391 2.2305-0.55078 0.6953-0.29297 1.3437-0.69141 1.9179-1.1797l5.586-4.418 12.238-0.29687-0.024 11.074c0 1.6836-0.4492 3.3398-1.3047 4.793-0.8984 1.5274-2.207 2.7734-3.7773 3.5938l-20.812 11.453c6.7148 4.4531 14.555 6.9141 22.609 7.1016 7.6054 0.17578 15.121-1.6836 21.77-5.3906l-0.3594-38.488 0.2852-12.363 11.852-9.5586c0.4688-0.47656 0.5665-1.207 0.2383-1.7891-0.2695-0.48828-0.7929-0.77735-1.3515-0.75391l-17.922-0.0781zm-1.0273 12.332c0.2695 1.2344 0.047 2.5234-0.6211 3.5976-0.7422 1.1914-1.9687 2.0078-3.3555 2.2305-1.3672 0.33594-2.8086-0.0742-3.7929-1.0781-0.6758-0.6836-1.0782-1.5977-1.1211-2.5586z" fill="#7fb8d1"/>
  <g clip-path="url(#clip172)">
   <path transform="translate(1501.3 511.15)" d="m29.626 0.069756-9.1484-0.042969c-0.96484-0.097656-1.9375 0.078124-2.8086 0.50391-0.84766 0.41797-1.5625 1.0586-2.0742 1.8516l-14.391 19.312c-0.61328 0.81641-1.0078 1.7734-1.1484 2.7852-0.16406 1.1836 0.03125 2.3867 0.55469 3.4609l2.6562 5.582c0.58984 0.88281 1.3555 1.6406 2.2422 2.2188 1.0273 0.66797 2.1953 1.0898 3.4102 1.2266l5.9375 0.03516c0.76953-0.06641 1.5195-0.25391 2.2305-0.55078 0.69531-0.29297 1.3438-0.69141 1.918-1.1797l5.5859-4.418 12.238-0.29688-0.02344 11.074c0 1.6836-0.44922 3.3398-1.3047 4.793-0.89844 1.5273-2.207 2.7734-3.7773 3.5938l-20.812 11.453c6.7148 4.4531 14.555 6.9141 22.609 7.1016 7.6094 0.17578 15.125-1.6836 21.77-5.3906l-0.35938-38.488 0.28516-12.363 11.852-9.5586c0.47266-0.47656 0.57031-1.207 0.24219-1.7891-0.27344-0.48828-0.79688-0.77734-1.3555-0.75391l-17.922-0.078125zm-1.0273 12.332c0.26953 1.2344 0.04687 2.5234-0.62109 3.5977-0.74219 1.1914-1.9648 2.0078-3.3555 2.2305-1.3672 0.33594-2.8086-0.07422-3.793-1.0781-0.67578-0.68359-1.0742-1.5977-1.1211-2.5586z" fill="none" stroke="#2b617f" stroke-width="2"/>
  </g>
  <path d="m1556.3 523.46 11.91-9.6055c0.5078-0.46094 0.6094-1.2148 0.2383-1.793-0.293-0.46093-0.8399-0.71093-1.3867-0.61718l-17.422 8.8398z" fill="#2e617f"/>
  <g clip-path="url(#clip173)">
   <path transform="translate(1549.6 511.42)" d="m6.6602 12.035 11.91-9.6055c0.50781-0.46094 0.60938-1.2148 0.23828-1.793-0.29297-0.46094-0.83984-0.71094-1.3867-0.61719l-17.422 8.8398z" fill="none" stroke="#2b617f" stroke-width="2"/>
  </g>
  <g clip-path="url(#clip174)">
   <path transform="translate(1484 477.4)" d="m87.239 14.967c19.957 19.957 19.957 52.316 0 72.273-19.957 19.957-52.312 19.957-72.27 0-19.957-19.957-19.957-52.316 0-72.273 19.957-19.957 52.312-19.957 72.27 0z" fill="none" stroke="#000" stroke-width="6"/>
  </g>
 </g>
</svg>
