<?xml version="1.0" encoding="UTF-8"?>
<svg width="112.14pt" height="112.15pt" version="1.2" viewBox="0 0 112.14 112.15" xmlns="http://www.w3.org/2000/svg" xmlns:cc="http://creativecommons.org/ns#" xmlns:dc="http://purl.org/dc/elements/1.1/" xmlns:rdf="http://www.w3.org/1999/02/22-rdf-syntax-ns#">
 <metadata>
  <rdf:RDF>
   <cc:Work rdf:about="">
    <dc:format>image/svg+xml</dc:format>
    <dc:type rdf:resource="http://purl.org/dc/dcmitype/StillImage"/>
    <dc:title/>
   </cc:Work>
  </rdf:RDF>
 </metadata>
 <defs>
  <clipPath id="clip191">
   <path d="m1781.9 475.32h108.21v108.2h-108.21z"/>
  </clipPath>
  <clipPath id="clip192">
   <path d="m1800.2 510.07h71.5v72.586h-71.5z"/>
  </clipPath>
  <clipPath id="clip193">
   <path d="m1847.3 510.34h24.293v16.211h-24.293z"/>
  </clipPath>
  <clipPath id="clip194">
   <path d="m1778.9 472.32h114.21v114.2h-114.21z"/>
  </clipPath>
 </defs>
 <g transform="translate(-1779.9 -473.35)">
  <path d="m1872.1 493.29c19.957 19.957 19.957 52.316 0 72.273s-52.316 19.957-72.273 0c-19.957-19.957-19.957-52.316 0-72.273 19.957-19.957 52.316-19.957 72.273 0z" fill="#ebf3f3"/>
  <g clip-path="url(#clip191)">
   <path transform="translate(1784.9 478.32)" d="m87.237 14.967c19.957 19.957 19.957 52.316 0 72.273-19.957 19.957-52.312 19.957-72.27 0-19.957-19.957-19.957-52.316 0-72.273 19.957-19.957 52.312-19.957 72.27 0z" fill="none" stroke="#000" stroke-width="4"/>
  </g>
  <path d="m1831.8 512.14-9.1445-0.043c-0.9649-0.0976-1.9375 0.0781-2.8086 0.50391-0.8477 0.41797-1.5664 1.0586-2.0742 1.8516l-14.391 19.312c-0.6172 0.81641-1.0117 1.7734-1.1523 2.7852-0.1641 1.1836 0.031 2.3867 0.5547 3.4609l2.6562 5.582c0.5899 0.88281 1.3555 1.6406 2.2461 2.2188 1.0235 0.66796 2.1914 1.0898 3.4102 1.2266l5.9336 0.0352c0.7695-0.0664 1.5234-0.2539 2.2304-0.55078 0.6993-0.29297 1.3438-0.6914 1.918-1.1797l5.5898-4.418 12.238-0.29688-0.027 11.074c0 1.6836-0.4492 3.3398-1.3047 4.793-0.8984 1.5273-2.2031 2.7734-3.7734 3.5977l-20.816 11.449c6.7187 4.4531 14.555 6.9141 22.609 7.1016 7.6094 0.17578 15.125-1.6836 21.77-5.3906l-0.3555-38.488 0.2812-12.363 11.856-9.5586c0.4688-0.47657 0.5664-1.207 0.2383-1.7891-0.2734-0.48828-0.7969-0.77734-1.3516-0.7539l-17.922-0.0781zm-1.0273 12.332c0.2695 1.2344 0.047 2.5234-0.6211 3.5977-0.7422 1.1953-1.9649 2.0078-3.3555 2.2305-1.3633 0.33593-2.8047-0.0742-3.793-1.0781-0.6758-0.68359-1.0742-1.5976-1.1172-2.5586z" fill="#548cae"/>
  <g clip-path="url(#clip192)">
   <path transform="translate(1802.2 512.07)" d="m29.626 0.069631-9.1445-0.042969c-0.96484-0.097656-1.9414 0.078124-2.8086 0.50391-0.84766 0.41797-1.5664 1.0586-2.0781 1.8516l-14.391 19.312c-0.61328 0.81641-1.0078 1.7734-1.1484 2.7852-0.16406 1.1836 0.03125 2.3867 0.55469 3.4609l2.6562 5.582c0.58984 0.88281 1.3555 1.6406 2.2461 2.2188 1.0234 0.66797 2.1914 1.0898 3.4102 1.2266l5.9336 0.03516c0.76953-0.06641 1.5195-0.25391 2.2305-0.55078 0.69531-0.29297 1.3438-0.69141 1.918-1.1797l5.5898-4.418 12.238-0.29688-0.02734 11.074c0 1.6836-0.44922 3.3398-1.3047 4.793-0.89844 1.5273-2.2031 2.7734-3.7734 3.5977l-20.816 11.449c6.7188 4.4531 14.555 6.9141 22.609 7.1016 7.6094 0.17578 15.125-1.6836 21.77-5.3906l-0.35547-38.488 0.28125-12.363 11.852-9.5586c0.47266-0.47656 0.57031-1.207 0.24219-1.7891-0.27344-0.48828-0.79688-0.77734-1.3516-0.75391l-17.922-0.078125zm-1.0273 12.332c0.26953 1.2344 0.04687 2.5234-0.62109 3.5977-0.74219 1.1914-1.9648 2.0078-3.3555 2.2305-1.3633 0.33594-2.8047-0.07422-3.793-1.0742-0.67578-0.6875-1.0742-1.6016-1.1172-2.5625z" fill="none" stroke="#2b617f" stroke-width="2"/>
  </g>
  <path d="m1857.2 524.38 11.906-9.6055c0.5117-0.46094 0.6093-1.2148 0.2422-1.793-0.2969-0.46094-0.8438-0.70703-1.3907-0.61719l-17.422 8.8398z" fill="#2e617f"/>
  <g clip-path="url(#clip193)">
   <path transform="translate(1850.5 512.34)" d="m6.6623 12.034 11.906-9.6055c0.51172-0.46094 0.60938-1.2148 0.24219-1.793-0.29688-0.46094-0.84375-0.70703-1.3906-0.61719l-17.422 8.8398z" fill="none" stroke="#2b617f" stroke-width="2"/>
  </g>
  <g clip-path="url(#clip194)">
   <path transform="translate(1784.9 478.32)" d="m87.237 14.967c19.957 19.957 19.957 52.316 0 72.273-19.957 19.957-52.312 19.957-72.27 0-19.957-19.957-19.957-52.316 0-72.273 19.957-19.957 52.312-19.957 72.27 0z" fill="none" stroke="#000" stroke-width="10"/>
  </g>
 </g>
</svg>
