<?xml version="1.0" encoding="UTF-8"?>
<svg width="136.25pt" height="94.825pt" version="1.2" viewBox="0 0 136.25 94.825" xmlns="http://www.w3.org/2000/svg" xmlns:cc="http://creativecommons.org/ns#" xmlns:dc="http://purl.org/dc/elements/1.1/" xmlns:rdf="http://www.w3.org/1999/02/22-rdf-syntax-ns#">
 <metadata>
  <rdf:RDF>
   <cc:Work rdf:about="">
    <dc:format>image/svg+xml</dc:format>
    <dc:type rdf:resource="http://purl.org/dc/dcmitype/StillImage"/>
    <dc:title/>
   </cc:Work>
  </rdf:RDF>
 </metadata>
 <defs>
  <clipPath id="clip9">
   <path d="m518.81 503.52h37.324v18.34h-37.324z"/>
  </clipPath>
  <clipPath id="clip10">
   <path d="m526 521h39v14h-39z"/>
  </clipPath>
  <clipPath id="clip11">
   <path d="m565.01 514.89-40.543 5.3281 2.6406 20.074 40.543-5.3281z"/>
  </clipPath>
  <clipPath id="clip12">
   <path d="m524 515h44v26h-44z"/>
  </clipPath>
  <clipPath id="clip13">
   <path d="m565.01 514.89-40.543 5.3281 2.6406 20.074 40.543-5.3281z"/>
  </clipPath>
  <clipPath id="clip14">
   <path d="m488.64 518.81h37.324v18.34h-37.324z"/>
  </clipPath>
  <clipPath id="clip15">
   <path d="m480 505h39v14h-39z"/>
  </clipPath>
  <clipPath id="clip16">
   <path d="m480 525.63 40.543-5.3281-2.6406-20.074-40.543 5.3281z"/>
  </clipPath>
  <clipPath id="clip17">
   <path d="m477 500h44v25h-44z"/>
  </clipPath>
  <clipPath id="clip18">
   <path d="m480 525.63 40.543-5.3281-2.6406-20.074-40.543 5.3281z"/>
  </clipPath>
  <clipPath id="clip19">
   <path d="m453.11 491.62h138.29v96.766h-138.29z"/>
  </clipPath>
  <clipPath id="clip20">
   <path d="m467.52 546.32h16.648v16.648h-16.648z"/>
  </clipPath>
  <clipPath id="clip21">
   <path d="m483.73 552.38h16.645v16.652h-16.645z"/>
  </clipPath>
  <clipPath id="clip22">
   <path d="m501.06 554.51h16.676v16.648h-16.676z"/>
  </clipPath>
 </defs>
 <g transform="translate(-454.13 -492.62)">
  <g>
   <path d="m522.26 494.62c-16.922 0-33.84 2.3711-46.75 7.1016-11.531 4.2266-17.871 9.6211-19.105 15.145h-0.26953v44.066h0.0312c-0.16015 6.2773 6.2734 12.566 19.344 17.355 25.82 9.4648 67.684 9.4648 93.504 0 13.07-4.7891 19.504-11.078 19.344-17.355h0.0273v-44.066h-0.26562c-1.2344-5.5234-7.5781-10.918-19.105-15.145-12.91-4.7305-29.832-7.1016-46.754-7.1016zm0 9.7969c12.699 0 25.391 1.2617 35.078 3.7852 19.375 5.0469 19.375 13.234 0 18.281-19.375 5.0469-50.777 5.0469-70.152 0-19.379-5.0469-19.379-13.234 0-18.281 9.6875-2.5234 22.379-3.7852 35.074-3.7852z" fill="#548cae"/>
   <path d="m522.26 494.62c-10.578 0-21.152 0.92188-30.75 2.7695-3.8398 0.74219-7.5195 1.6328-10.984 2.668-1.7305 0.51563-3.4062 1.0742-5.0195 1.6641-0.8125 0.30078-1.5352 0.62109-2.3047 0.92578-0.64844 0.2539-1.332 0.51562-1.9414 0.78515-0.57422 0.25782-1.082 0.52735-1.625 0.78907-0.71875 0.35156-1.4531 0.68359-2.1172 1.043-0.63281 0.34375-1.207 0.71094-1.7852 1.0625-0.46094 0.27735-0.94141 0.5586-1.375 0.84766-0.57031 0.37891-1.0898 0.77734-1.6016 1.168-0.33985 0.25781-0.69532 0.51953-1.0117 0.78516-0.53907 0.45312-1.043 0.90234-1.5 1.3633-0.17969 0.17968-0.35157 0.37109-0.52735 0.5625-0.47656 0.51562-0.92187 1.0273-1.3008 1.5586-0.10547 0.14453-0.19922 0.30469-0.30078 0.45313-0.36719 0.55468-0.71094 1.1055-0.96875 1.668-0.0508 0.10938-0.0898 0.23438-0.13672 0.34766-0.25 0.59766-0.47656 1.1875-0.60937 1.7852-1.5195 6.8438 4.8203 13.879 19.105 19.113 25.82 9.4648 67.684 9.4648 93.504 0 12.914-4.7305 19.375-10.926 19.375-17.129 0-0.66015-0.11328-1.3242-0.25781-1.9844h-0.0117c-0.14844-0.66407-0.375-1.3242-0.67187-1.9844-0.0117-0.0234-0.0234-0.0469-0.0312-0.0742l-0.0117-0.0312c-0.25782-0.55859-0.60157-1.1133-0.96875-1.6641-0.1211-0.18359-0.23828-0.37109-0.36328-0.54687-0.34766-0.48438-0.75391-0.94922-1.1875-1.4219-0.22266-0.24219-0.44141-0.48437-0.67188-0.71094-0.44141-0.44531-0.92969-0.87109-1.4453-1.3047-0.29297-0.2461-0.60938-0.50391-0.92188-0.74219-0.55468-0.42578-1.1289-0.83985-1.7539-1.2578-0.35547-0.23438-0.74219-0.46485-1.1172-0.69532-0.64844-0.39843-1.3047-0.80859-2.0234-1.1953-0.55469-0.29687-1.1719-0.57812-1.7578-0.86328-0.66406-0.32422-1.2852-0.65625-1.9922-0.96875-0.0351-0.0156-0.0703-0.0312-0.10547-0.0469-0.4414-0.19531-0.9375-0.37109-1.4062-0.5625-0.875-0.35156-1.7305-0.72656-2.6758-1.0742-1.6133-0.58985-3.2891-1.1484-5.0195-1.6641-3.4648-1.0352-7.1445-1.9258-10.984-2.668-9.5977-1.8476-20.172-2.7695-30.746-2.7695z" fill="#7fbad4"/>
   <path d="m521.14 517.16 14.449-6.8906-5.1797-1.5664 23.898-3.5625-4.3359 9.9062-5.0781-1.6172-14.293 6.8828z" fill="#113a51"/>
  </g>
  <g>
   <g clip-path="url(#clip9)">
    <path transform="translate(521.14 505.14)" d="m0.0015312 12.02 14.449-6.8906-5.1797-1.5664 23.898-3.5625-4.3359 9.9062-5.0781-1.6172-14.293 6.8828z" fill="none" stroke="#000"/>
   </g>
   <g clip-path="url(#clip10)">
    <g clip-path="url(#clip11)">
     <path d="m564.79 531.04-17.043-5.8203 4.125-2.125-25.078-1.4453 8.7812 9.5625 4.3477-2.2109 16.855 5.8438z" fill="#113a51"/>
    </g>
   </g>
   <g clip-path="url(#clip12)">
    <g clip-path="url(#clip13)">
     <path transform="matrix(-.99148 .13029 .13029 .99148 562.93 516.9)" d="m0.0015288 14.261 16.139-7.9912-4.3667-1.5695 24.676-4.7004-7.4605 10.625-4.5987-1.6256-15.95 7.99z" fill="none" stroke="#000"/>
    </g>
   </g>
  </g>
  <path d="m523.63 523.5-14.449 6.8906 5.1797 1.5703-23.898 3.5625 4.3359-9.9062 5.0781 1.6133 14.293-6.8789z" fill="#113a51"/>
  <g>
   <g clip-path="url(#clip14)">
    <path transform="rotate(180 261.81 267.76)" d="m5.9375e-4 12.023 14.449-6.8906-5.1797-1.5703 23.898-3.5625-4.3359 9.9063-5.0781-1.6133-14.293 6.8789z" fill="none" stroke="#000"/>
   </g>
   <g clip-path="url(#clip15)">
    <g clip-path="url(#clip16)">
     <path d="m480.21 509.48 17.047 5.8203-4.125 2.125 25.078 1.4453-8.7812-9.5625-4.3476 2.2109-16.855-5.8438z" fill="#113a51"/>
    </g>
   </g>
   <g clip-path="url(#clip17)">
    <g clip-path="url(#clip18)">
     <path transform="matrix(.99148 -.13029 -.13029 -.99148 482.07 523.62)" d="m-0.0018984 14.261 16.143-7.9917-4.3667-1.5695 24.676-4.7004-7.4605 10.625-4.5987-1.6256-15.95 7.99z" fill="none" stroke="#000"/>
    </g>
   </g>
   <g clip-path="url(#clip19)">
    <path transform="translate(456.13 494.62)" d="m66.124 0.0017875c-16.922 0-33.84 2.3711-46.75 7.1016-11.531 4.2266-17.871 9.6211-19.105 15.145h-0.26953v44.066h0.03125c-0.16016 6.2773 6.2734 12.566 19.344 17.355 25.82 9.4648 67.684 9.4648 93.504 0 13.07-4.7891 19.504-11.078 19.344-17.355h0.0312v-44.066h-0.26953c-1.2343-5.5234-7.5781-10.918-19.105-15.145-12.91-4.7305-29.832-7.1016-46.754-7.1016z" fill="none" stroke="#000" stroke-width="4"/>
   </g>
  </g>
  <path d="m475.86 549.32c-1.3633 0-2.7344 0.52735-3.7734 1.5664-1.0391 1.0391-1.5664 2.3828-1.5664 3.75 0 1.3633 0.52734 2.7344 1.5664 3.7734 2.082 2.0781 5.4453 2.0781 7.5234 0 2.082-2.082 2.082-5.4453 0-7.5234-1.0391-1.0391-2.3867-1.5664-3.75-1.5664z" fill="#61d733"/>
  <g clip-path="url(#clip20)">
   <path transform="translate(470.52 549.32)" d="m5.3393 6.125e-4c-1.3633 0-2.7344 0.52734-3.7734 1.5664-1.0391 1.0391-1.5664 2.3828-1.5664 3.75 0 1.3633 0.52734 2.7344 1.5664 3.7734 2.082 2.0781 5.4453 2.0781 7.5234 0 2.082-2.082 2.082-5.4453 0-7.5234-1.0391-1.0391-2.3867-1.5664-3.75-1.5664z" fill="none" stroke="#113a51" stroke-width="4"/>
  </g>
  <path d="m492.07 555.38c-1.3633 0-2.7344 0.52734-3.7734 1.5664-2.082 2.082-2.082 5.4453 0 7.5234 2.0781 2.082 5.4414 2.082 7.5234 0 2.0781-2.0781 2.0781-5.4414 0-7.5234-1.0391-1.0391-2.3867-1.5664-3.75-1.5664z" fill="#61d733"/>
  <g clip-path="url(#clip21)">
   <path transform="translate(486.73 555.38)" d="m5.3342-0.0016c-1.3633 0-2.7344 0.52734-3.7734 1.5664-2.082 2.082-2.082 5.4453 0 7.5234 2.0781 2.082 5.4414 2.082 7.5234 0 2.0781-2.0781 2.0781-5.4414 0-7.5234-1.0391-1.0391-2.3867-1.5664-3.75-1.5664z" fill="none" stroke="#113a51" stroke-width="4"/>
  </g>
  <path d="m509.4 557.51c-1.3633 0-2.7344 0.5-3.7734 1.5391-2.082 2.082-2.082 5.4688 0 7.5508 2.0781 2.0781 5.4688 2.0781 7.5469 0 1.043-1.043 1.5664-2.4102 1.5664-3.7774 0-1.3633-0.52344-2.7344-1.5664-3.7734-1.0391-1.0391-2.4102-1.5391-3.7734-1.5391z" fill="#61d733"/>
  <g clip-path="url(#clip22)">
   <path transform="translate(504.06 557.51)" d="m5.3345 0.0014125c-1.3633 0-2.7344 0.5-3.7734 1.5391-2.082 2.082-2.082 5.4688 0 7.5508 2.0781 2.0781 5.4688 2.0781 7.5469 0 1.043-1.043 1.5664-2.4102 1.5664-3.7773 0-1.3633-0.52344-2.7344-1.5664-3.7734-1.0391-1.0391-2.4102-1.5391-3.7734-1.5391z" fill="none" stroke="#113a51" stroke-width="4"/>
  </g>
 </g>
</svg>
