<?xml version="1.0" encoding="UTF-8"?>
<svg width="136.25pt" height="94.829pt" version="1.2" viewBox="0 0 136.25 94.829" xmlns="http://www.w3.org/2000/svg" xmlns:cc="http://creativecommons.org/ns#" xmlns:dc="http://purl.org/dc/elements/1.1/" xmlns:rdf="http://www.w3.org/1999/02/22-rdf-syntax-ns#">
 <metadata>
  <rdf:RDF>
   <cc:Work rdf:about="">
    <dc:format>image/svg+xml</dc:format>
    <dc:type rdf:resource="http://purl.org/dc/dcmitype/StillImage"/>
    <dc:title/>
   </cc:Work>
  </rdf:RDF>
 </metadata>
 <defs>
  <clipPath id="clip61">
   <path d="m969.54 502.19h37.324v18.336h-37.324z"/>
  </clipPath>
  <clipPath id="clip62">
   <path d="m977 520h39v14h-39z"/>
  </clipPath>
  <clipPath id="clip63">
   <path d="m1015.7 513.56-40.543 5.3281 2.6406 20.078 40.543-5.3281z"/>
  </clipPath>
  <clipPath id="clip64">
   <path d="m975 514h44v25h-44z"/>
  </clipPath>
  <clipPath id="clip65">
   <path d="m1015.7 513.56-40.543 5.3281 2.6406 20.078 40.543-5.3281z"/>
  </clipPath>
  <clipPath id="clip66">
   <path d="m939.38 517.48h37.324v18.336h-37.324z"/>
  </clipPath>
  <clipPath id="clip67">
   <path d="m930 504h39v14h-39z"/>
  </clipPath>
  <clipPath id="clip68">
   <path d="m930.73 524.3 40.543-5.3281-2.6406-20.078-40.539 5.3281z"/>
  </clipPath>
  <clipPath id="clip69">
   <path d="m928 498h44v26h-44z"/>
  </clipPath>
  <clipPath id="clip70">
   <path d="m930.73 524.3 40.543-5.3281-2.6406-20.078-40.539 5.3281z"/>
  </clipPath>
  <clipPath id="clip71">
   <path d="m903.85 490.29h138.29v96.77h-138.29z"/>
  </clipPath>
  <clipPath id="clip72">
   <path d="m918.26 544.99h16.652v16.652h-16.652z"/>
  </clipPath>
  <clipPath id="clip73">
   <path d="m934.47 551.05h16.641v16.648h-16.641z"/>
  </clipPath>
  <clipPath id="clip74">
   <path d="m951.8 553.18h16.672v16.652h-16.672z"/>
  </clipPath>
 </defs>
 <g transform="translate(-904.87 -491.29)">
  <g>
   <path d="m973 493.29c-16.922 0-33.844 2.3711-46.754 7.1055-11.527 4.2227-17.871 9.6211-19.105 15.145h-0.26953v44.066h0.0312c-0.16016 6.2774 6.2734 12.566 19.344 17.355 25.82 9.4648 67.684 9.4648 93.504 0 13.07-4.7891 19.504-11.078 19.344-17.355h0.031v-44.066h-0.2695c-1.2344-5.5234-7.5743-10.922-19.106-15.145-12.91-4.7344-29.828-7.1055-46.75-7.1055zm0 9.8008c12.695 0 25.387 1.2617 35.074 3.7852 19.375 5.0469 19.375 13.234 0 18.281-19.375 5.043-50.777 5.043-70.152 0-19.375-5.0469-19.375-13.234 0-18.281 9.6875-2.5234 22.379-3.7852 35.078-3.7852z" fill="#2e637f"/>
   <path d="m972.99 493.29c-10.578 0-21.152 0.92188-30.75 2.7734-3.8359 0.73828-7.5195 1.6289-10.98 2.6641-1.7344 0.51953-3.4102 1.0742-5.0234 1.668-0.8125 0.29688-1.5352 0.62109-2.3047 0.92188-0.64843 0.25781-1.332 0.51953-1.9414 0.78906-0.57422 0.2539-1.082 0.52344-1.6211 0.78906-0.72265 0.34766-1.457 0.68359-2.1211 1.043-0.63281 0.34375-1.207 0.71094-1.7852 1.0625-0.46093 0.27734-0.9414 0.55859-1.375 0.84766-0.57031 0.3789-1.0898 0.77734-1.6016 1.1641-0.33984 0.25781-0.69141 0.51953-1.0117 0.78906-0.53906 0.44922-1.0391 0.89844-1.5 1.3633-0.17578 0.17969-0.35156 0.3711-0.52734 0.5586-0.47656 0.51953-0.92188 1.0312-1.3008 1.5625-0.10157 0.14453-0.19922 0.30078-0.30078 0.45312-0.36329 0.55078-0.71094 1.1055-0.96875 1.6641-0.0508 0.11328-0.0859 0.23438-0.13672 0.35157-0.25 0.59765-0.47657 1.1875-0.60938 1.7852-1.5195 6.8438 4.8203 13.879 19.105 19.113 25.82 9.4648 67.684 9.4648 93.504 0 12.914-4.7305 19.375-10.926 19.375-17.129 0-0.66016-0.1133-1.3281-0.2578-1.9844h-0.012c-0.1485-0.66406-0.375-1.3242-0.6719-1.9844-0.012-0.0234-0.019-0.0508-0.031-0.0742l-0.01-0.0312c-0.2578-0.5625-0.6054-1.1133-0.9726-1.668-0.1211-0.17969-0.2344-0.36719-0.3633-0.54297-0.3477-0.48437-0.7539-0.95312-1.1875-1.4258-0.2188-0.24219-0.4414-0.48047-0.6719-0.71094-0.4414-0.4414-0.9297-0.86719-1.4453-1.3008-0.293-0.24609-0.6094-0.50391-0.918-0.74219-0.5547-0.42968-1.1328-0.84375-1.7578-1.2578-0.3515-0.23437-0.7422-0.46875-1.1172-0.69531-0.6484-0.40235-1.3047-0.8086-2.0234-1.1992-0.5508-0.29688-1.1719-0.57422-1.7578-0.86328-0.6641-0.32422-1.2852-0.65625-1.9922-0.96875-0.035-0.0156-0.07-0.0312-0.1055-0.043-0.4375-0.19531-0.9375-0.37109-1.4023-0.5625-0.8789-0.35547-1.7344-0.72656-2.6797-1.0742-1.6133-0.59375-3.2891-1.1484-5.0195-1.668-3.461-1.0352-7.1446-1.9258-10.984-2.6641-9.5938-1.8516-20.172-2.7734-30.746-2.7734z" fill="#579ebd"/>
   <path d="m971.88 515.84 14.449-6.8906-5.1797-1.5664 23.898-3.5625-4.336 9.9062-5.0781-1.6172-14.293 6.8828z" fill="#113a51"/>
  </g>
  <g>
   <g clip-path="url(#clip61)">
    <path transform="translate(971.88 503.81)" d="m8.0625e-4 12.021 14.449-6.8906-5.1797-1.5664 23.898-3.5625-4.3359 9.9062-5.0781-1.6172-14.293 6.8828z" fill="none" stroke="#000"/>
   </g>
   <g clip-path="url(#clip62)">
    <g clip-path="url(#clip63)">
     <path d="m1015.5 529.71-17.047-5.8242 4.125-2.1211-25.078-1.4453 8.7812 9.5625 4.3476-2.2109 16.855 5.8398z" fill="#113a51"/>
    </g>
   </g>
   <g clip-path="url(#clip64)">
    <g clip-path="url(#clip65)">
     <path transform="matrix(-.99148 .13029 .13029 .99148 1013.7 515.57)" d="m-0.0011487 14.263 16.143-7.9956-4.3662-1.5656 24.676-4.7004-7.4605 10.625-4.5987-1.6256-15.951 7.9861z" fill="none" stroke="#000"/>
    </g>
   </g>
  </g>
  <path d="m974.36 522.17-14.449 6.8906 5.1797 1.5703-23.898 3.5586 4.3359-9.9062 5.0781 1.6172 14.293-6.8828z" fill="#113a51"/>
  <g>
   <g clip-path="url(#clip66)">
    <path transform="rotate(180 487.18 267.09)" d="m0.0013188 12.021 14.449-6.8906-5.1797-1.5703 23.898-3.5586-4.3359 9.9062-5.0781-1.6172-14.293 6.8828z" fill="none" stroke="#000"/>
   </g>
   <g clip-path="url(#clip67)">
    <g clip-path="url(#clip68)">
     <path d="m930.95 508.15 17.043 5.8242-4.125 2.125 25.078 1.4453-8.7812-9.5664-4.3477 2.2148-16.855-5.8438z" fill="#113a51"/>
    </g>
   </g>
   <g clip-path="url(#clip69)">
    <g clip-path="url(#clip70)">
     <path transform="matrix(.99148 -.13029 -.13029 -.99148 932.81 522.29)" d="m0.0015856 14.263 16.139-7.9951-4.3667-1.5695 24.676-4.7004-7.46 10.629-4.5992-1.6295-15.95 7.99z" fill="none" stroke="#000"/>
    </g>
   </g>
   <g clip-path="url(#clip71)">
    <path transform="translate(906.87 493.29)" d="m66.127-7.4375e-4c-16.922 0-33.844 2.3711-46.754 7.1055-11.527 4.2227-17.871 9.6211-19.105 15.145h-0.26953v44.066h0.03125c-0.16016 6.2773 6.2734 12.566 19.344 17.355 25.82 9.4648 67.684 9.4648 93.504 0 13.07-4.7891 19.504-11.078 19.344-17.355h0.0312v-44.066h-0.26953c-1.2343-5.5234-7.5742-10.922-19.105-15.145-12.91-4.7344-29.828-7.1055-46.75-7.1055z" fill="none" stroke="#000" stroke-width="4"/>
   </g>
  </g>
  <path d="m926.6 547.99c-1.3633 0-2.7344 0.52734-3.7773 1.5664-1.0391 1.043-1.5664 2.3867-1.5664 3.75s0.52735 2.7344 1.5664 3.7734c2.082 2.082 5.4453 2.082 7.5234 0 2.082-2.0781 2.082-5.4414 0-7.5234-1.0391-1.0391-2.3828-1.5664-3.7461-1.5664z" fill="#61d733"/>
  <g clip-path="url(#clip72)">
   <path transform="translate(921.26 547.99)" d="m5.3425-0.0018188c-1.3633 0-2.7344 0.52734-3.7773 1.5664-1.0391 1.043-1.5664 2.3867-1.5664 3.75 0 1.3633 0.52734 2.7344 1.5664 3.7734 2.082 2.082 5.4453 2.082 7.5234 0 2.082-2.0781 2.082-5.4414 0-7.5234-1.0391-1.0391-2.3828-1.5664-3.7461-1.5664z" fill="none" stroke="#113a51" stroke-width="4"/>
  </g>
  <path d="m942.8 554.05c-1.3633 0-2.7344 0.52735-3.7734 1.5664-2.0781 2.082-2.0781 5.4414 0 7.5234 2.082 2.0781 5.4414 2.0781 7.5234 0 2.0781-2.082 2.0781-5.4414 0-7.5234-1.0391-1.0391-2.3867-1.5664-3.75-1.5664z" fill="#61d733"/>
  <g clip-path="url(#clip73)">
   <path transform="translate(937.47 554.05)" d="m5.3335-2.25e-4c-1.3633 0-2.7344 0.52734-3.7734 1.5664-2.0781 2.082-2.0781 5.4414 0 7.5234 2.082 2.0781 5.4414 2.0781 7.5234 0 2.0781-2.082 2.0781-5.4414 0-7.5234-1.0391-1.0391-2.3867-1.5664-3.75-1.5664z" fill="none" stroke="#113a51" stroke-width="4"/>
  </g>
  <path d="m960.13 556.18c-1.3633 0-2.7344 0.5-3.7734 1.543-2.082 2.0781-2.082 5.4688 0 7.5469 2.0781 2.082 5.4688 2.082 7.5469 0 1.043-1.0391 1.5664-2.4102 1.5664-3.7734s-0.52344-2.7344-1.5664-3.7734c-1.0391-1.043-2.4102-1.543-3.7734-1.543z" fill="#61d733"/>
  <g clip-path="url(#clip74)">
   <path transform="translate(954.8 556.18)" d="m5.3337-0.0011188c-1.3633 0-2.7344 0.5-3.7734 1.543-2.082 2.0781-2.082 5.4688 0 7.5469 2.0781 2.082 5.4688 2.082 7.5469 0 1.043-1.0391 1.5664-2.4102 1.5664-3.7734 0-1.3633-0.52344-2.7344-1.5664-3.7734-1.0391-1.043-2.4102-1.543-3.7734-1.543z" fill="none" stroke="#113a51" stroke-width="4"/>
  </g>
 </g>
</svg>
