<?xml version="1.0" encoding="UTF-8"?>
<svg width="140.25pt" height="98.887pt" version="1.2" viewBox="0 0 140.25 98.887" xmlns="http://www.w3.org/2000/svg" xmlns:cc="http://creativecommons.org/ns#" xmlns:dc="http://purl.org/dc/elements/1.1/" xmlns:rdf="http://www.w3.org/1999/02/22-rdf-syntax-ns#">
 <metadata>
  <rdf:RDF>
   <cc:Work rdf:about="">
    <dc:format>image/svg+xml</dc:format>
    <dc:type rdf:resource="http://purl.org/dc/dcmitype/StillImage"/>
    <dc:title/>
   </cc:Work>
  </rdf:RDF>
 </metadata>
 <defs>
  <clipPath id="clip203">
   <path d="m1194.9 502.71h37.324v18.336h-37.324z"/>
  </clipPath>
  <clipPath id="clip204">
   <path d="m1202 520h39v15h-39z"/>
  </clipPath>
  <clipPath id="clip205">
   <path d="m1241.1 514.08-40.543 5.3281 2.6406 20.078 40.543-5.3281z"/>
  </clipPath>
  <clipPath id="clip206">
   <path d="m1200 515h44v25h-44z"/>
  </clipPath>
  <clipPath id="clip207">
   <path d="m1241.1 514.08-40.543 5.3281 2.6406 20.078 40.543-5.3281z"/>
  </clipPath>
  <clipPath id="clip208">
   <path d="m1164.7 518h37.324v18.336h-37.324z"/>
  </clipPath>
  <clipPath id="clip209">
   <path d="m1156 504h39v15h-39z"/>
  </clipPath>
  <clipPath id="clip210">
   <path d="m1156.1 524.82 40.543-5.3281-2.6367-20.078-40.543 5.3281z"/>
  </clipPath>
  <clipPath id="clip211">
   <path d="m1153 499h44v25h-44z"/>
  </clipPath>
  <clipPath id="clip212">
   <path d="m1156.1 524.82 40.543-5.3281-2.6367-20.078-40.543 5.3281z"/>
  </clipPath>
  <clipPath id="clip213">
   <path d="m1127.2 488.81h142.39v100.77h-142.39z"/>
  </clipPath>
  <clipPath id="clip214">
   <path d="m1143.6 545.52h16.648v16.648h-16.648z"/>
  </clipPath>
  <clipPath id="clip215">
   <path d="m1159.8 551.57h16.641v16.648h-16.641z"/>
  </clipPath>
  <clipPath id="clip216">
   <path d="m1177.2 553.7h16.676v16.652h-16.676z"/>
  </clipPath>
 </defs>
 <g transform="translate(-1128.2 -489.81)">
  <g>
   <path d="m1198.4 493.81c-16.922 0-33.844 2.3711-46.754 7.1055-11.531 4.2227-17.871 9.6211-19.106 15.145h-0.2695v44.066h0.031c-0.1601 6.2773 6.2735 12.566 19.344 17.355 25.82 9.4648 67.684 9.4648 93.504 0 13.07-4.7891 19.504-11.078 19.344-17.355h0.031v-44.066h-0.2695c-1.2344-5.5234-7.5743-10.922-19.106-15.145-12.91-4.7344-29.828-7.1055-46.75-7.1055zm0 9.8008c12.695 0 25.391 1.2617 35.074 3.7852 19.379 5.0469 19.379 13.234 0 18.281-19.375 5.043-50.777 5.043-70.152 0-19.375-5.0469-19.375-13.234 0-18.281 9.6875-2.5234 22.379-3.7852 35.078-3.7852z" fill="#2e637f"/>
   <path d="m1198.4 493.81c-10.578 0-21.152 0.92187-30.75 2.7734-3.836 0.73828-7.5196 1.6289-10.98 2.6641-1.7344 0.51953-3.4101 1.0742-5.0234 1.668-0.8125 0.29687-1.5352 0.62109-2.3047 0.92187-0.6485 0.25782-1.332 0.51953-1.9414 0.78907-0.5742 0.2539-1.0821 0.52734-1.6211 0.78906-0.7227 0.34765-1.4531 0.68359-2.1211 1.043-0.6328 0.34375-1.207 0.71093-1.7852 1.0625-0.4609 0.27734-0.9414 0.55859-1.375 0.84765-0.5703 0.37891-1.0898 0.77735-1.6015 1.1641-0.3399 0.25781-0.6914 0.51953-1.0117 0.78906-0.5391 0.44922-1.0391 0.89844-1.5 1.3633-0.1758 0.17969-0.3516 0.37109-0.5235 0.55859-0.4805 0.51953-0.9258 1.0312-1.3047 1.5625-0.1015 0.14453-0.1992 0.30078-0.2968 0.45313-0.3672 0.55078-0.7149 1.1055-0.9727 1.6641-0.051 0.11328-0.086 0.23438-0.1328 0.35156-0.2539 0.59766-0.4766 1.1875-0.6094 1.7852-1.5234 6.8438 4.8164 13.879 19.102 19.113 25.824 9.4648 67.684 9.4648 93.508 0 12.91-4.7305 19.371-10.926 19.371-17.129 0-0.66015-0.1133-1.3281-0.2578-1.9844h-0.012c-0.1484-0.66406-0.375-1.3242-0.6718-1.9844-0.012-0.0234-0.02-0.0508-0.031-0.0742l-0.01-0.0312c-0.2578-0.5625-0.6055-1.1133-0.9726-1.668-0.1211-0.17969-0.2344-0.36719-0.3594-0.54297-0.3477-0.48438-0.7578-0.95313-1.1914-1.4258-0.2188-0.24219-0.4414-0.48047-0.6719-0.71094-0.4414-0.44141-0.9297-0.86719-1.4453-1.3008-0.293-0.2461-0.6094-0.50391-0.918-0.74219-0.5547-0.42969-1.1289-0.84375-1.7578-1.2578-0.3516-0.23438-0.7422-0.46875-1.1172-0.69531-0.6484-0.40235-1.3047-0.8086-2.0234-1.1992-0.5508-0.29688-1.1719-0.57422-1.7578-0.86328-0.6641-0.32422-1.2852-0.65625-1.9922-0.96875-0.035-0.0156-0.07-0.0312-0.1055-0.043-0.4375-0.19532-0.9336-0.3711-1.4023-0.5625-0.8789-0.35547-1.7305-0.72657-2.6758-1.0742-1.6172-0.59375-3.293-1.1484-5.0235-1.668-3.4609-1.0352-7.1445-1.9258-10.984-2.6641-9.5938-1.8516-20.172-2.7734-30.746-2.7734z" fill="#579ebd"/>
   <path d="m1197.2 516.36 14.449-6.8906-5.1797-1.5664 23.898-3.5625-4.336 9.9062-5.0781-1.6172-14.289 6.8828z" fill="#113a51"/>
  </g>
  <g>
   <g clip-path="url(#clip203)">
    <path transform="translate(1197.2 504.34)" d="m9.375e-5 12.021 14.449-6.8906-5.1797-1.5664 23.898-3.5625-4.3359 9.9063-5.0781-1.6172-14.293 6.8828z" fill="none" stroke="#000"/>
   </g>
   <g clip-path="url(#clip204)">
    <g clip-path="url(#clip205)">
     <path d="m1240.9 530.23-17.047-5.8242 4.125-2.1211-25.078-1.4453 8.7813 9.5625 4.3476-2.2109 16.859 5.8398z" fill="#113a51"/>
    </g>
   </g>
   <g clip-path="url(#clip206)">
    <g clip-path="url(#clip207)">
     <path transform="matrix(-.99148 .13029 .13029 .99148 1239 516.09)" d="m-0.0013428 14.263 16.143-7.9956-4.3662-1.5656 24.676-4.7004-7.4605 10.625-4.5987-1.6256-15.951 7.9861z" fill="none" stroke="#000"/>
    </g>
   </g>
  </g>
  <path d="m1199.7 522.69-14.449 6.8906 5.1796 1.5703-23.898 3.5586 4.3359-9.9062 5.0782 1.6172 14.293-6.8828z" fill="#113a51"/>
  <g>
   <g clip-path="url(#clip208)">
    <path transform="rotate(180 599.87 267.36)" d="m0.0015312 12.021 14.449-6.8906-5.1797-1.5703 23.898-3.5586-4.3359 9.9063-5.0781-1.6172-14.293 6.8828z" fill="none" stroke="#000"/>
   </g>
   <g clip-path="url(#clip209)">
    <g clip-path="url(#clip210)">
     <path d="m1156.3 508.67 17.043 5.8242-4.125 2.125 25.078 1.4453-8.7812-9.5664-4.3477 2.2148-16.856-5.8438z" fill="#113a51"/>
    </g>
   </g>
   <g clip-path="url(#clip211)">
    <g clip-path="url(#clip212)">
     <path transform="matrix(.99148 -.13029 -.13029 -.99148 1158.2 522.81)" d="m0.0016805 14.263 16.139-7.9951-4.3667-1.5695 24.676-4.7004-7.46 10.629-4.5992-1.6295-15.95 7.99z" fill="none" stroke="#000"/>
    </g>
   </g>
   <g clip-path="url(#clip213)">
    <path transform="translate(1132.2 493.81)" d="m66.127-8.0625e-4c-16.922 0-33.844 2.3711-46.754 7.1055-11.527 4.2227-17.871 9.6211-19.105 15.145h-0.26953v44.066h0.03125c-0.16016 6.2773 6.2734 12.566 19.344 17.355 25.82 9.4648 67.684 9.4648 93.504 0 13.07-4.7891 19.504-11.078 19.344-17.355h0.0312v-44.066h-0.26953c-1.2343-5.5234-7.5742-10.922-19.105-15.145-12.91-4.7344-29.828-7.1055-46.75-7.1055z" fill="none" stroke="#000" stroke-width="8"/>
   </g>
  </g>
  <path d="m1152 548.52c-1.3633 0-2.7344 0.52344-3.7774 1.5625-1.0391 1.043-1.5625 2.3867-1.5625 3.75 0 1.3633 0.5234 2.7344 1.5625 3.7734 2.082 2.082 5.4453 2.082 7.5234 0 2.0821-2.0781 2.0821-5.4414 0-7.5234-1.039-1.0391-2.3828-1.5625-3.746-1.5625z" fill="#61d733"/>
  <g clip-path="url(#clip214)">
   <path transform="translate(1146.6 548.51)" d="m5.3418 0.001925c-1.3633 0-2.7344 0.52344-3.7773 1.5625-1.0391 1.043-1.5625 2.3867-1.5625 3.75s0.52344 2.7344 1.5625 3.7734c2.082 2.082 5.4453 2.082 7.5234 0 2.082-2.0781 2.082-5.4414 0-7.5234-1.0391-1.0391-2.3828-1.5625-3.7461-1.5625z" fill="none" stroke="#113a51" stroke-width="4"/>
  </g>
  <path d="m1168.2 554.57c-1.3633 0-2.7344 0.52735-3.7735 1.5664-2.0781 2.082-2.0781 5.4453 0 7.5234 2.0821 2.082 5.4453 2.082 7.5235 0 2.0781-2.0781 2.0781-5.4414 0-7.5234-1.0391-1.0391-2.3867-1.5664-3.75-1.5664z" fill="#61d733"/>
  <g clip-path="url(#clip215)">
   <path transform="translate(1162.8 554.57)" d="m5.333-2.875e-4c-1.3633 0-2.7344 0.52734-3.7734 1.5664-2.0781 2.082-2.0781 5.4414 0 7.5234 2.082 2.0781 5.4453 2.0781 7.5234 0 2.082-2.082 2.082-5.4414 0-7.5234-1.0391-1.0391-2.3867-1.5664-3.75-1.5664z" fill="none" stroke="#113a51" stroke-width="4"/>
  </g>
  <path d="m1185.5 556.7c-1.3633 0-2.7344 0.5-3.7734 1.543-2.0782 2.0781-2.0782 5.4688 0 7.5469 2.082 2.082 5.4687 2.082 7.5507 0 1.0391-1.0391 1.5665-2.4102 1.5665-3.7734 0-1.3633-0.5274-2.7344-1.5665-3.7734-1.0429-1.043-2.414-1.543-3.7773-1.543z" fill="#61d733"/>
  <g clip-path="url(#clip216)">
   <path transform="translate(1180.2 556.7)" d="m5.333-0.0011812c-1.3633 0-2.7344 0.5-3.7734 1.543-2.0781 2.0781-2.0781 5.4688 0 7.5469 2.082 2.082 5.4688 2.082 7.5508 0 1.0391-1.0391 1.5664-2.4102 1.5664-3.7734s-0.52734-2.7344-1.5664-3.7734c-1.043-1.043-2.4141-1.543-3.7773-1.543z" fill="none" stroke="#113a51" stroke-width="4"/>
  </g>
 </g>
</svg>
